<svg width="1280" height="420" viewBox="0 0 1280 420" fill="none" xmlns="http://www.w3.org/2000/svg" role="img" aria-label="Escalation Path Check cover">

  <defs>
    <linearGradient id="g" x1="0" x2="1" y1="0" y2="1">
      <stop offset="0" stop-color="#3b82f6" stop-opacity=".34"/>
      <stop offset=".54" stop-color="#0b1020" stop-opacity="0"/>
      <stop offset="1" stop-color="#22d3ee" stop-opacity=".30"/>
    </linearGradient>
    <filter id="grain" x="-20%" y="-20%" width="140%" height="140%">
      <feTurbulence type="fractalNoise" baseFrequency=".85" numOctaves="2" seed="6" result="noise"/>
      <feColorMatrix type="saturate" values="0"/>
      <feComponentTransfer><feFuncA type="table" tableValues="0 .10"/></feComponentTransfer>
      <feBlend mode="soft-light" in2="SourceGraphic"/>
    </filter>
  </defs>
  <rect width="1280" height="420" rx="30" fill="#0b1020"/>
  <rect width="1280" height="420" rx="30" fill="url(#g)" filter="url(#grain)"/>

  <rect x="82" y="74" width="300" height="272" rx="30" fill="#3b82f6" opacity=".18"/>
  <path d="M132 142h168M132 202h108M132 262h202" stroke="#f8fafc" stroke-width="15" stroke-linecap="round"/>
  <text x="446" y="184" fill="#f8fafc" font-family="Manrope, ui-sans-serif, system-ui" font-size="60" font-weight="850">Escalation Path Check</text>
  <text x="450" y="242" fill="#c7d2fe" font-family="Manrope, ui-sans-serif, system-ui" font-size="23">Check escalation matrices for owner, backup, and...</text>
  <rect x="450" y="278" width="360" height="44" rx="22" fill="#22d3ee" opacity=".18"/>
  <text x="470" y="307" fill="#f8fafc" font-family="ui-monospace, SFMono-Regular, Menlo, monospace" font-size="16" font-weight="800">INCIDENT PRACTICE</text>
  <rect x="846" y="122" width="148" height="28" rx="8" fill="#3b82f6" opacity=".85"/>
  <text x="862" y="141" fill="#f8fafc" font-family="ui-monospace, SFMono-Regular, Menlo, monospace" font-size="13">unknown-owner</text>
  <rect x="846" y="176" width="216" height="28" rx="8" fill="#22d3ee" opacity=".85"/>
  <text x="862" y="195" fill="#f8fafc" font-family="ui-monospace, SFMono-Regular, Menlo, monospace" font-size="13">missing-backup</text>
  <rect x="846" y="230" width="270" height="28" rx="8" fill="#3b82f6" opacity=".85"/>
  <text x="862" y="249" fill="#f8fafc" font-family="ui-monospace, SFMono-Regular, Menlo, monospace" font-size="13">missing-path</text>
</svg>
